<?xml version="1.0" encoding="UTF-8" standalone="no"?>
<!DOCTYPE svg PUBLIC "-//W3C//DTD SVG 1.1//EN"
 "http://www.w3.org/Graphics/SVG/1.1/DTD/svg11.dtd">
<!-- Generated by graphviz version 2.43.0 (0)
 -->
<!-- Title: Aestra::Audio::DSP::Filter::Filter Pages: 1 -->
<svg width="439pt" height="86pt"
 viewBox="0.00 0.00 439.00 86.00" xmlns="http://www.w3.org/2000/svg" xmlns:xlink="http://www.w3.org/1999/xlink">
<g id="graph0" class="graph" transform="scale(1 1) rotate(0) translate(4 82)">
<title>Aestra::Audio::DSP::Filter::Filter</title>
<!-- Node1 -->
<g id="Node000001" class="node">
<title>Node1</title>
<g id="a_Node000001"><a xlink:title="Construct filter with sample rate.">
<polygon fill="#999999" stroke="#666666" points="107,-56 0,-56 0,-26 107,-26 107,-56"/>
<text text-anchor="start" x="8" y="-44" font-family="Helvetica,sans-Serif" font-size="10.00">Aestra::Audio::DSP</text>
<text text-anchor="middle" x="53.5" y="-33" font-family="Helvetica,sans-Serif" font-size="10.00">::Filter::Filter</text>
</a>
</g>
</g>
<!-- Node2 -->
<g id="Node000002" class="node">
<title>Node2</title>
<g id="a_Node000002"><a xlink:href="../../de/dd2/classAestra_1_1Audio_1_1DSP_1_1Filter.html#a90ac8a81f64348b8a6161c5ff28d6f5b" target="_top" xlink:title="Prepare filter for new sample rate.">
<polygon fill="white" stroke="#666666" points="250,-35 143,-35 143,-5 250,-5 250,-35"/>
<text text-anchor="start" x="151" y="-23" font-family="Helvetica,sans-Serif" font-size="10.00">Aestra::Audio::DSP</text>
<text text-anchor="middle" x="196.5" y="-12" font-family="Helvetica,sans-Serif" font-size="10.00">::Filter::prepare</text>
</a>
</g>
</g>
<!-- Node1&#45;&gt;Node2 -->
<g id="edge1_Node000001_Node000002" class="edge">
<title>Node1&#45;&gt;Node2</title>
<g id="a_edge1_Node000001_Node000002"><a xlink:title=" ">
<path fill="none" stroke="#63b8ff" d="M107,-33.18C115.44,-31.92 124.26,-30.61 132.9,-29.32"/>
<polygon fill="#63b8ff" stroke="#63b8ff" points="133.58,-32.76 142.95,-27.83 132.55,-25.84 133.58,-32.76"/>
</a>
</g>
</g>
<!-- Node3 -->
<g id="Node000003" class="node">
<title>Node3</title>
<g id="a_Node000003"><a xlink:href="../../de/dd2/classAestra_1_1Audio_1_1DSP_1_1Filter.html#ab5f97cc40f73befa09ef5f7a3eb3b71e" target="_top" xlink:title="Reset filter state (clears memory)">
<polygon fill="white" stroke="#666666" points="412,-78 305,-78 305,-48 412,-48 412,-78"/>
<text text-anchor="start" x="313" y="-66" font-family="Helvetica,sans-Serif" font-size="10.00">Aestra::Audio::DSP</text>
<text text-anchor="middle" x="358.5" y="-55" font-family="Helvetica,sans-Serif" font-size="10.00">::Filter::reset</text>
</a>
</g>
</g>
<!-- Node1&#45;&gt;Node3 -->
<g id="edge4_Node000001_Node000003" class="edge">
<title>Node1&#45;&gt;Node3</title>
<g id="a_edge4_Node000001_Node000003"><a xlink:title=" ">
<path fill="none" stroke="#63b8ff" d="M107.28,-44.83C159.47,-48.62 239.36,-54.42 294.77,-58.45"/>
<polygon fill="#63b8ff" stroke="#63b8ff" points="294.59,-61.94 304.82,-59.17 295.1,-54.96 294.59,-61.94"/>
</a>
</g>
</g>
<!-- Node2&#45;&gt;Node3 -->
<g id="edge2_Node000002_Node000003" class="edge">
<title>Node2&#45;&gt;Node3</title>
<g id="a_edge2_Node000002_Node000003"><a xlink:title=" ">
<path fill="none" stroke="#63b8ff" d="M250.33,-34.2C264.61,-38.04 280.19,-42.22 294.94,-46.19"/>
<polygon fill="#63b8ff" stroke="#63b8ff" points="294.43,-49.67 304.99,-48.89 296.25,-42.91 294.43,-49.67"/>
</a>
</g>
</g>
<!-- Node4 -->
<g id="Node000004" class="node">
<title>Node4</title>
<g id="a_Node000004"><a xlink:href="../../de/dd2/classAestra_1_1Audio_1_1DSP_1_1Filter.html#acd974b1aa59cf58935ebe2658f6ad9f9" target="_top" xlink:title="Force update coefficients (bypass smoothing)">
<polygon fill="white" stroke="#666666" points="431,-30 286,-30 286,0 431,0 431,-30"/>
<text text-anchor="start" x="294" y="-18" font-family="Helvetica,sans-Serif" font-size="10.00">Aestra::Audio::DSP</text>
<text text-anchor="middle" x="358.5" y="-7" font-family="Helvetica,sans-Serif" font-size="10.00">::Filter::updateCoefficients</text>
</a>
</g>
</g>
<!-- Node2&#45;&gt;Node4 -->
<g id="edge3_Node000002_Node000004" class="edge">
<title>Node2&#45;&gt;Node4</title>
<g id="a_edge3_Node000002_Node000004"><a xlink:title=" ">
<path fill="none" stroke="#63b8ff" d="M250.33,-18.35C258.51,-18.09 267.12,-17.82 275.75,-17.55"/>
<polygon fill="#63b8ff" stroke="#63b8ff" points="275.99,-21.05 285.88,-17.24 275.77,-14.05 275.99,-21.05"/>
</a>
</g>
</g>
</g>
</svg>
