<?xml version="1.0" encoding="UTF-8" standalone="no"?>
<!DOCTYPE svg PUBLIC "-//W3C//DTD SVG 1.1//EN"
 "http://www.w3.org/Graphics/SVG/1.1/DTD/svg11.dtd">
<!-- Generated by graphviz version 2.43.0 (0)
 -->
<!-- Title: Aestra::Audio::VST3PluginInstance::deactivate Pages: 1 -->
<svg width="509pt" height="86pt"
 viewBox="0.00 0.00 509.00 86.00" xmlns="http://www.w3.org/2000/svg" xmlns:xlink="http://www.w3.org/1999/xlink">
<g id="graph0" class="graph" transform="scale(1 1) rotate(0) translate(4 82)">
<title>Aestra::Audio::VST3PluginInstance::deactivate</title>
<!-- Node1 -->
<g id="Node000001" class="node">
<title>Node1</title>
<g id="a_Node000001"><a xlink:title="Deactivate the plugin Called when audio engine stops or plugin is disabled.">
<polygon fill="#999999" stroke="#666666" points="501,-54 358,-54 358,-24 501,-24 501,-54"/>
<text text-anchor="start" x="366" y="-42" font-family="Helvetica,sans-Serif" font-size="10.00">Aestra::Audio::VST3Plugin</text>
<text text-anchor="middle" x="429.5" y="-31" font-family="Helvetica,sans-Serif" font-size="10.00">Instance::deactivate</text>
</a>
</g>
</g>
<!-- Node2 -->
<g id="Node000002" class="node">
<title>Node2</title>
<g id="a_Node000002"><a xlink:href="../../d9/dad/classAestra_1_1Audio_1_1VST3PluginInstance.html#a2ff25eb88329db8b42e7d00d5db43c8c" target="_top" xlink:title="Shutdown the plugin, releasing all resources.">
<polygon fill="white" stroke="#666666" points="322,-78 179,-78 179,-48 322,-48 322,-78"/>
<text text-anchor="start" x="187" y="-66" font-family="Helvetica,sans-Serif" font-size="10.00">Aestra::Audio::VST3Plugin</text>
<text text-anchor="middle" x="250.5" y="-55" font-family="Helvetica,sans-Serif" font-size="10.00">Instance::shutdown</text>
</a>
</g>
</g>
<!-- Node1&#45;&gt;Node2 -->
<g id="edge1_Node000001_Node000002" class="edge">
<title>Node1&#45;&gt;Node2</title>
<g id="a_edge1_Node000001_Node000002"><a xlink:title=" ">
<path fill="none" stroke="#63b8ff" d="M347.79,-49.94C339.22,-51.11 330.55,-52.28 322.11,-53.43"/>
<polygon fill="#63b8ff" stroke="#63b8ff" points="348.34,-53.4 357.78,-48.59 347.4,-46.46 348.34,-53.4"/>
</a>
</g>
</g>
<!-- Node3 -->
<g id="Node000003" class="node">
<title>Node3</title>
<g id="a_Node000003"><a xlink:href="../../d9/dad/classAestra_1_1Audio_1_1VST3PluginInstance.html#ac17f09e6ad1263c54031f1fa8f9a993a" target="_top" xlink:title="Unload the plugin.">
<polygon fill="white" stroke="#666666" points="322,-30 179,-30 179,0 322,0 322,-30"/>
<text text-anchor="start" x="187" y="-18" font-family="Helvetica,sans-Serif" font-size="10.00">Aestra::Audio::VST3Plugin</text>
<text text-anchor="middle" x="250.5" y="-7" font-family="Helvetica,sans-Serif" font-size="10.00">Instance::unload</text>
</a>
</g>
</g>
<!-- Node1&#45;&gt;Node3 -->
<g id="edge2_Node000001_Node000003" class="edge">
<title>Node1&#45;&gt;Node3</title>
<g id="a_edge2_Node000001_Node000003"><a xlink:title=" ">
<path fill="none" stroke="#63b8ff" d="M347.79,-28.06C339.22,-26.89 330.55,-25.72 322.11,-24.57"/>
<polygon fill="#63b8ff" stroke="#63b8ff" points="347.4,-31.54 357.78,-29.41 348.34,-24.6 347.4,-31.54"/>
</a>
</g>
</g>
<!-- Node4 -->
<g id="Node000004" class="node">
<title>Node4</title>
<g id="a_Node000004"><a xlink:href="../../d9/dad/classAestra_1_1Audio_1_1VST3PluginInstance.html#a3a3779387e51c4d68ecbd78129a6ab42" target="_top" xlink:title="Load a VST3 plugin from file.">
<polygon fill="white" stroke="#666666" points="143,-30 0,-30 0,0 143,0 143,-30"/>
<text text-anchor="start" x="8" y="-18" font-family="Helvetica,sans-Serif" font-size="10.00">Aestra::Audio::VST3Plugin</text>
<text text-anchor="middle" x="71.5" y="-7" font-family="Helvetica,sans-Serif" font-size="10.00">Instance::load</text>
</a>
</g>
</g>
<!-- Node3&#45;&gt;Node4 -->
<g id="edge3_Node000003_Node000004" class="edge">
<title>Node3&#45;&gt;Node4</title>
<g id="a_edge3_Node000003_Node000004"><a xlink:title=" ">
<path fill="none" stroke="#63b8ff" d="M168.51,-15C160.03,-15 151.46,-15 143.11,-15"/>
<polygon fill="#63b8ff" stroke="#63b8ff" points="168.78,-18.5 178.78,-15 168.78,-11.5 168.78,-18.5"/>
</a>
</g>
</g>
</g>
</svg>
