<?xml version="1.0" encoding="UTF-8" standalone="no"?>
<!DOCTYPE svg PUBLIC "-//W3C//DTD SVG 1.1//EN"
 "http://www.w3.org/Graphics/SVG/1.1/DTD/svg11.dtd">
<!-- Generated by graphviz version 2.43.0 (0)
 -->
<!-- Title: Aestra::Audio::UnitState Pages: 1 -->
<svg width="384pt" height="269pt"
 viewBox="0.00 0.00 384.00 269.00" xmlns="http://www.w3.org/2000/svg" xmlns:xlink="http://www.w3.org/1999/xlink">

<svg id="main" version="1.1" xmlns="http://www.w3.org/2000/svg" xmlns:xlink="http://www.w3.org/1999/xlink" xml:space="preserve" onload="init(evt)">
<style type="text/css"><![CDATA[
.node, .edge {opacity: 0.7;}
.node.selected, .edge.selected {opacity: 1;}
.edge:hover path { stroke: red; }
.edge:hover polygon { stroke: red; fill: red; }
]]></style>
<script type="application/ecmascript" xlink:href="../../svg.min.js"/>
<svg id="graph" class="graph">
<g id="graph0" class="graph" transform="scale(1 1) rotate(0) translate(4 265)">
<title>Aestra::Audio::UnitState</title>
<!-- Node1 -->
<g id="Node000001" class="node">
<title>Node1</title>
<g id="a_Node000001"><a xlink:title="Lightweight unit state used by the audio&#45;thread snapshot.">
<polygon fill="#999999" stroke="#666666" points="182.5,-19 48.5,-19 48.5,0 182.5,0 182.5,-19"/>
<text text-anchor="middle" x="115.5" y="-7" font-family="Helvetica,sans-Serif" font-size="10.00">Aestra::Audio::UnitState</text>
</a>
</g>
</g>
<!-- Node2 -->
<g id="Node000002" class="node">
<title>Node2</title>
<g id="a_Node000002"><a xlink:title=" ">
<polygon fill="white" stroke="#bfbfbf" points="29,-112.5 0,-112.5 0,-93.5 29,-93.5 29,-112.5"/>
<text text-anchor="middle" x="14.5" y="-100.5" font-family="Helvetica,sans-Serif" font-size="10.00">int</text>
</a>
</g>
</g>
<!-- Node2&#45;&gt;Node1 -->
<g id="edge1_Node000001_Node000002" class="edge">
<title>Node2&#45;&gt;Node1</title>
<g id="a_edge1_Node000001_Node000002"><a xlink:title=" ">
<path fill="none" stroke="#9a32cd" stroke-dasharray="5,2" d="M17.64,-83.3C20.99,-68.87 27.64,-49.34 40.5,-37 49.17,-28.68 60.61,-22.95 71.93,-19.02"/>
<polygon fill="#9a32cd" stroke="#9a32cd" points="14.2,-82.65 15.68,-93.14 21.07,-84.02 14.2,-82.65"/>
</a>
</g>
<text text-anchor="middle" x="58" y="-56.5" font-family="Helvetica,sans-Serif" font-size="10.00" fill="grey"> id</text>
<text text-anchor="middle" x="58" y="-45.5" font-family="Helvetica,sans-Serif" font-size="10.00" fill="grey">routeId</text>
</g>
<!-- Node3 -->
<g id="Node000003" class="node">
<title>Node3</title>
<g id="a_Node000003"><a xlink:title=" ">
<polygon fill="white" stroke="#bfbfbf" points="88.5,-112.5 50.5,-112.5 50.5,-93.5 88.5,-93.5 88.5,-112.5"/>
<text text-anchor="middle" x="69.5" y="-100.5" font-family="Helvetica,sans-Serif" font-size="10.00">bool</text>
</a>
</g>
</g>
<!-- Node3&#45;&gt;Node1 -->
<g id="edge2_Node000001_Node000003" class="edge">
<title>Node3&#45;&gt;Node1</title>
<g id="a_edge2_Node000001_Node000003"><a xlink:title=" ">
<path fill="none" stroke="#9a32cd" stroke-dasharray="5,2" d="M74.58,-83.22C78.64,-69.82 85.05,-51.65 93.5,-37 97.21,-30.58 102.48,-24.16 106.94,-19.25"/>
<polygon fill="#9a32cd" stroke="#9a32cd" points="71.12,-82.6 71.73,-93.17 77.85,-84.52 71.12,-82.6"/>
</a>
</g>
<text text-anchor="middle" x="115" y="-62" font-family="Helvetica,sans-Serif" font-size="10.00" fill="grey"> enabled</text>
<text text-anchor="middle" x="115" y="-51" font-family="Helvetica,sans-Serif" font-size="10.00" fill="grey">isMuted</text>
<text text-anchor="middle" x="115" y="-40" font-family="Helvetica,sans-Serif" font-size="10.00" fill="grey">isSolo</text>
</g>
<!-- Node4 -->
<g id="Node000004" class="node">
<title>Node4</title>
<g id="a_Node000004"><a xlink:title=" ">
<polygon fill="white" stroke="#666666" points="248.5,-118 106.5,-118 106.5,-88 248.5,-88 248.5,-118"/>
<text text-anchor="start" x="114.5" y="-106" font-family="Helvetica,sans-Serif" font-size="10.00">std::shared_ptr&lt; Aestra</text>
<text text-anchor="middle" x="177.5" y="-95" font-family="Helvetica,sans-Serif" font-size="10.00">::Audio::IPluginInstance &gt;</text>
</a>
</g>
</g>
<!-- Node4&#45;&gt;Node1 -->
<g id="edge3_Node000001_Node000004" class="edge">
<title>Node4&#45;&gt;Node1</title>
<g id="a_edge3_Node000001_Node000004"><a xlink:title=" ">
<path fill="none" stroke="#9a32cd" stroke-dasharray="5,2" d="M163.95,-79.21C156.23,-66.56 146.18,-50.67 136.5,-37 132.16,-30.87 126.91,-24.24 122.74,-19.15"/>
<polygon fill="#9a32cd" stroke="#9a32cd" points="160.96,-81.02 169.13,-87.77 166.95,-77.4 160.96,-81.02"/>
</a>
</g>
<text text-anchor="middle" x="173.5" y="-51" font-family="Helvetica,sans-Serif" font-size="10.00" fill="grey"> plugin</text>
</g>
<!-- Node5 -->
<g id="Node000005" class="node">
<title>Node5</title>
<g id="a_Node000005"><a xlink:href="../../de/d54/classAestra_1_1Audio_1_1IPluginInstance.html" target="_top" xlink:title="Abstract plugin instance interface.">
<polygon fill="white" stroke="#666666" points="208.5,-195 46.5,-195 46.5,-176 208.5,-176 208.5,-195"/>
<text text-anchor="middle" x="127.5" y="-183" font-family="Helvetica,sans-Serif" font-size="10.00">Aestra::Audio::IPluginInstance</text>
</a>
</g>
</g>
<!-- Node5&#45;&gt;Node4 -->
<g id="edge4_Node000004_Node000005" class="edge">
<title>Node5&#45;&gt;Node4</title>
<g id="a_edge4_Node000004_Node000005"><a xlink:title=" ">
<path fill="none" stroke="#9a32cd" stroke-dasharray="5,2" d="M138.19,-167.29C147.27,-152.67 160.16,-131.92 168.67,-118.22"/>
<polygon fill="#9a32cd" stroke="#9a32cd" points="135.15,-165.54 132.85,-175.89 141.1,-169.24 135.15,-165.54"/>
</a>
</g>
<text text-anchor="middle" x="165" y="-144.5" font-family="Helvetica,sans-Serif" font-size="10.00" fill="grey"> ptr</text>
</g>
<!-- Node6 -->
<g id="Node000006" class="node">
<title>Node6</title>
<g id="a_Node000006"><a xlink:title=" ">
<polygon fill="white" stroke="#666666" points="344.5,-195 226.5,-195 226.5,-176 344.5,-176 344.5,-195"/>
<text text-anchor="middle" x="285.5" y="-183" font-family="Helvetica,sans-Serif" font-size="10.00">std::shared_ptr&lt; T &gt;</text>
</a>
</g>
</g>
<!-- Node6&#45;&gt;Node4 -->
<g id="edge5_Node000004_Node000006" class="edge">
<title>Node6&#45;&gt;Node4</title>
<g id="a_edge5_Node000004_Node000006"><a xlink:title=" ">
<path fill="none" stroke="orange" stroke-dasharray="5,2" d="M265.7,-169.74C246,-155.06 216.01,-132.7 196.58,-118.22"/>
<polygon fill="orange" stroke="orange" points="263.83,-172.72 273.94,-175.89 268.02,-167.1 263.83,-172.72"/>
</a>
</g>
<text text-anchor="start" x="246.5" y="-150" font-family="Helvetica,sans-Serif" font-size="10.00" fill="grey"> &lt; Aestra::Audio::IPlugin</text>
<text text-anchor="middle" x="306" y="-139" font-family="Helvetica,sans-Serif" font-size="10.00" fill="grey">Instance &gt;</text>
</g>
<!-- Node7 -->
<g id="Node000007" class="node">
<title>Node7</title>
<g id="a_Node000007"><a xlink:title=" ">
<polygon fill="white" stroke="#bfbfbf" points="300,-261 271,-261 271,-242 300,-242 300,-261"/>
<text text-anchor="middle" x="285.5" y="-249" font-family="Helvetica,sans-Serif" font-size="10.00">T</text>
</a>
</g>
</g>
<!-- Node7&#45;&gt;Node6 -->
<g id="edge6_Node000006_Node000007" class="edge">
<title>Node7&#45;&gt;Node6</title>
<g id="a_edge6_Node000006_Node000007"><a xlink:title=" ">
<path fill="none" stroke="#9a32cd" stroke-dasharray="5,2" d="M285.5,-231.58C285.5,-219.63 285.5,-204.72 285.5,-195.41"/>
<polygon fill="#9a32cd" stroke="#9a32cd" points="282,-231.87 285.5,-241.87 289,-231.87 282,-231.87"/>
</a>
</g>
<text text-anchor="middle" x="294" y="-216" font-family="Helvetica,sans-Serif" font-size="10.00" fill="grey"> ptr</text>
</g>
<!-- Node8 -->
<g id="Node000008" class="node">
<title>Node8</title>
<g id="a_Node000008"><a xlink:title=" ">
<polygon fill="white" stroke="#bfbfbf" points="376,-112.5 267,-112.5 267,-93.5 376,-93.5 376,-112.5"/>
<text text-anchor="middle" x="321.5" y="-100.5" font-family="Helvetica,sans-Serif" font-size="10.00">ArsenalRouteMode</text>
</a>
</g>
</g>
<!-- Node8&#45;&gt;Node1 -->
<g id="edge7_Node000001_Node000008" class="edge">
<title>Node8&#45;&gt;Node1</title>
<g id="a_edge7_Node000001_Node000008"><a xlink:title=" ">
<path fill="none" stroke="#9a32cd" stroke-dasharray="5,2" d="M297.79,-88.51C272.65,-74.53 231.55,-52.59 194.5,-37 178.23,-30.15 159.53,-23.81 144.4,-19.05"/>
<polygon fill="#9a32cd" stroke="#9a32cd" points="296.17,-91.61 306.6,-93.45 299.59,-85.51 296.17,-91.61"/>
</a>
</g>
<text text-anchor="middle" x="288.5" y="-51" font-family="Helvetica,sans-Serif" font-size="10.00" fill="grey"> routeMode</text>
</g>
</g>
</svg>
</svg>

<style type='text/css'>
<![CDATA[
[data-mouse-over-selected='false'] { opacity: 0.7; }
[data-mouse-over-selected='true']  { opacity: 1.0; }
]]>
</style>
<script type="application/ecmascript"><![CDATA[
document.addEventListener('DOMContentLoaded', (event) => {
  highlightEdges();
  highlightAdjacentNodes();
});
]]></script>
</svg>
