<?xml version="1.0" encoding="UTF-8" standalone="no"?>
<!DOCTYPE svg PUBLIC "-//W3C//DTD SVG 1.1//EN"
 "http://www.w3.org/Graphics/SVG/1.1/DTD/svg11.dtd">
<!-- Generated by graphviz version 2.43.0 (0)
 -->
<!-- Title: Aestra::Audio::MixerChannel::findSendIndex Pages: 1 -->
<svg width="597pt" height="86pt"
 viewBox="0.00 0.00 597.00 86.00" xmlns="http://www.w3.org/2000/svg" xmlns:xlink="http://www.w3.org/1999/xlink">
<g id="graph0" class="graph" transform="scale(1 1) rotate(0) translate(4 82)">
<title>Aestra::Audio::MixerChannel::findSendIndex</title>
<!-- Node1 -->
<g id="Node000001" class="node">
<title>Node1</title>
<g id="a_Node000001"><a xlink:title="Positional lookup for a stable sendId; &#45;1 when absent.">
<polygon fill="#999999" stroke="#666666" points="589,-54 434,-54 434,-24 589,-24 589,-54"/>
<text text-anchor="start" x="442" y="-42" font-family="Helvetica,sans-Serif" font-size="10.00">Aestra::Audio::MixerChannel</text>
<text text-anchor="middle" x="511.5" y="-31" font-family="Helvetica,sans-Serif" font-size="10.00">::findSendIndex</text>
</a>
</g>
</g>
<!-- Node2 -->
<g id="Node000002" class="node">
<title>Node2</title>
<g id="a_Node000002"><a xlink:href="../../dd/db3/classAestra_1_1Audio_1_1RemoveSendCommand.html#a6babc85a621218163a01fdc6e19c7740" target="_top" xlink:title="Execute the command (first time)">
<polygon fill="white" stroke="#666666" points="383.5,-78 231.5,-78 231.5,-48 383.5,-48 383.5,-78"/>
<text text-anchor="start" x="239.5" y="-66" font-family="Helvetica,sans-Serif" font-size="10.00">Aestra::Audio::RemoveSend</text>
<text text-anchor="middle" x="307.5" y="-55" font-family="Helvetica,sans-Serif" font-size="10.00">Command::execute</text>
</a>
</g>
</g>
<!-- Node1&#45;&gt;Node2 -->
<g id="edge1_Node000001_Node000002" class="edge">
<title>Node1&#45;&gt;Node2</title>
<g id="a_edge1_Node000001_Node000002"><a xlink:title=" ">
<path fill="none" stroke="#63b8ff" d="M423.75,-49.31C410.44,-50.89 396.8,-52.51 383.77,-54.06"/>
<polygon fill="#63b8ff" stroke="#63b8ff" points="424.33,-52.76 433.84,-48.11 423.5,-45.81 424.33,-52.76"/>
</a>
</g>
</g>
<!-- Node4 -->
<g id="Node000004" class="node">
<title>Node4</title>
<g id="a_Node000004"><a xlink:href="../../dd/d34/classAestra_1_1Audio_1_1EditSendCommand.html#a4e26b3619d093ab5cb6f82ce53fb148c" target="_top" xlink:title="Execute the command (first time)">
<polygon fill="white" stroke="#666666" points="398,-30 217,-30 217,0 398,0 398,-30"/>
<text text-anchor="start" x="225" y="-18" font-family="Helvetica,sans-Serif" font-size="10.00">Aestra::Audio::EditSendCommand</text>
<text text-anchor="middle" x="307.5" y="-7" font-family="Helvetica,sans-Serif" font-size="10.00">::execute</text>
</a>
</g>
</g>
<!-- Node1&#45;&gt;Node4 -->
<g id="edge3_Node000001_Node000004" class="edge">
<title>Node1&#45;&gt;Node4</title>
<g id="a_edge3_Node000001_Node000004"><a xlink:title=" ">
<path fill="none" stroke="#63b8ff" d="M423.68,-28.68C415.28,-27.69 406.75,-26.67 398.32,-25.67"/>
<polygon fill="#63b8ff" stroke="#63b8ff" points="423.5,-32.19 433.84,-29.89 424.33,-25.24 423.5,-32.19"/>
</a>
</g>
</g>
<!-- Node3 -->
<g id="Node000003" class="node">
<title>Node3</title>
<g id="a_Node000003"><a xlink:href="../../dd/db3/classAestra_1_1Audio_1_1RemoveSendCommand.html#a1b897b2d526bc8eafaf36c2ee23100ee" target="_top" xlink:title="Redo the command (must be explicitly implemented) Implementers should consider: is redo() exactly exe...">
<polygon fill="white" stroke="#666666" points="166.5,-78 14.5,-78 14.5,-48 166.5,-48 166.5,-78"/>
<text text-anchor="start" x="22.5" y="-66" font-family="Helvetica,sans-Serif" font-size="10.00">Aestra::Audio::RemoveSend</text>
<text text-anchor="middle" x="90.5" y="-55" font-family="Helvetica,sans-Serif" font-size="10.00">Command::redo</text>
</a>
</g>
</g>
<!-- Node2&#45;&gt;Node3 -->
<g id="edge2_Node000002_Node000003" class="edge">
<title>Node2&#45;&gt;Node3</title>
<g id="a_edge2_Node000002_Node000003"><a xlink:title=" ">
<path fill="none" stroke="#63b8ff" d="M221.11,-63C203.11,-63 184.25,-63 166.65,-63"/>
<polygon fill="#63b8ff" stroke="#63b8ff" points="221.3,-66.5 231.3,-63 221.3,-59.5 221.3,-66.5"/>
</a>
</g>
</g>
<!-- Node5 -->
<g id="Node000005" class="node">
<title>Node5</title>
<g id="a_Node000005"><a xlink:href="../../dd/d34/classAestra_1_1Audio_1_1EditSendCommand.html#a00463bbb3bdf85217a261001d5996610" target="_top" xlink:title="Redo the command (must be explicitly implemented) Implementers should consider: is redo() exactly exe...">
<polygon fill="white" stroke="#666666" points="181,-30 0,-30 0,0 181,0 181,-30"/>
<text text-anchor="start" x="8" y="-18" font-family="Helvetica,sans-Serif" font-size="10.00">Aestra::Audio::EditSendCommand</text>
<text text-anchor="middle" x="90.5" y="-7" font-family="Helvetica,sans-Serif" font-size="10.00">::redo</text>
</a>
</g>
</g>
<!-- Node4&#45;&gt;Node5 -->
<g id="edge4_Node000004_Node000005" class="edge">
<title>Node4&#45;&gt;Node5</title>
<g id="a_edge4_Node000004_Node000005"><a xlink:title=" ">
<path fill="none" stroke="#63b8ff" d="M206.63,-15C198.19,-15 189.68,-15 181.32,-15"/>
<polygon fill="#63b8ff" stroke="#63b8ff" points="206.88,-18.5 216.88,-15 206.88,-11.5 206.88,-18.5"/>
</a>
</g>
</g>
</g>
</svg>
