<?xml version="1.0" encoding="UTF-8" standalone="no"?>
<!DOCTYPE svg PUBLIC "-//W3C//DTD SVG 1.1//EN"
 "http://www.w3.org/Graphics/SVG/1.1/DTD/svg11.dtd">
<!-- Generated by graphviz version 2.43.0 (0)
 -->
<!-- Title: Aestra::Audio::MixerChannel::getName Pages: 1 -->
<svg width="548pt" height="182pt"
 viewBox="0.00 0.00 548.00 182.00" xmlns="http://www.w3.org/2000/svg" xmlns:xlink="http://www.w3.org/1999/xlink">
<g id="graph0" class="graph" transform="scale(1 1) rotate(0) translate(4 178)">
<title>Aestra::Audio::MixerChannel::getName</title>
<!-- Node1 -->
<g id="Node000001" class="node">
<title>Node1</title>
<g id="a_Node000001"><a xlink:title="Get the display name shown in the UI.">
<polygon fill="#999999" stroke="#666666" points="540,-102 385,-102 385,-72 540,-72 540,-102"/>
<text text-anchor="start" x="393" y="-90" font-family="Helvetica,sans-Serif" font-size="10.00">Aestra::Audio::MixerChannel</text>
<text text-anchor="middle" x="462.5" y="-79" font-family="Helvetica,sans-Serif" font-size="10.00">::getName</text>
</a>
</g>
</g>
<!-- Node2 -->
<g id="Node000002" class="node">
<title>Node2</title>
<g id="a_Node000002"><a xlink:href="../../da/d55/classAestra_1_1Audio_1_1DeleteTrackCommand.html#af90a9908fac33e06940460d03ddd9436" target="_top" xlink:title="Execute the command (first time)">
<polygon fill="white" stroke="#666666" points="345,-174 199,-174 199,-144 345,-144 345,-174"/>
<text text-anchor="start" x="207" y="-162" font-family="Helvetica,sans-Serif" font-size="10.00">Aestra::Audio::DeleteTrack</text>
<text text-anchor="middle" x="272" y="-151" font-family="Helvetica,sans-Serif" font-size="10.00">Command::execute</text>
</a>
</g>
</g>
<!-- Node1&#45;&gt;Node2 -->
<g id="edge1_Node000001_Node000002" class="edge">
<title>Node1&#45;&gt;Node2</title>
<g id="a_edge1_Node000001_Node000002"><a xlink:title=" ">
<path fill="none" stroke="#63b8ff" d="M419.12,-106.24C398.21,-115.43 372.49,-126.3 349,-135 340.7,-138.07 331.79,-141.11 323.11,-143.94"/>
<polygon fill="#63b8ff" stroke="#63b8ff" points="420.64,-109.39 428.37,-102.14 417.81,-102.99 420.64,-109.39"/>
</a>
</g>
</g>
<!-- Node3 -->
<g id="Node000003" class="node">
<title>Node3</title>
<g id="a_Node000003"><a xlink:href="../../dc/d3a/classAestra_1_1Audio_1_1RenameTrackCommand.html#a11da8593018d249a3c1e73433f4266bc" target="_top" xlink:title="Execute the command (first time)">
<polygon fill="white" stroke="#666666" points="349,-126 195,-126 195,-96 349,-96 349,-126"/>
<text text-anchor="start" x="203" y="-114" font-family="Helvetica,sans-Serif" font-size="10.00">Aestra::Audio::RenameTrack</text>
<text text-anchor="middle" x="272" y="-103" font-family="Helvetica,sans-Serif" font-size="10.00">Command::execute</text>
</a>
</g>
</g>
<!-- Node1&#45;&gt;Node3 -->
<g id="edge2_Node000001_Node000003" class="edge">
<title>Node1&#45;&gt;Node3</title>
<g id="a_edge2_Node000001_Node000003"><a xlink:title=" ">
<path fill="none" stroke="#63b8ff" d="M374.87,-98.03C366.33,-99.12 357.72,-100.21 349.3,-101.29"/>
<polygon fill="#63b8ff" stroke="#63b8ff" points="375.35,-101.5 384.83,-96.76 374.47,-94.55 375.35,-101.5"/>
</a>
</g>
</g>
<!-- Node4 -->
<g id="Node000004" class="node">
<title>Node4</title>
<g id="a_Node000004"><a xlink:href="../../db/d60/classAestraContent.html#a9274902c21392bdc5757a71c146978fe" target="_top" xlink:title="Load an effect plugin onto the selected track.">
<polygon fill="white" stroke="#666666" points="342.5,-78 201.5,-78 201.5,-48 342.5,-48 342.5,-78"/>
<text text-anchor="start" x="209.5" y="-66" font-family="Helvetica,sans-Serif" font-size="10.00">AestraContent::loadEffect</text>
<text text-anchor="middle" x="272" y="-55" font-family="Helvetica,sans-Serif" font-size="10.00">ToSelectedTrack</text>
</a>
</g>
</g>
<!-- Node1&#45;&gt;Node4 -->
<g id="edge3_Node000001_Node000004" class="edge">
<title>Node1&#45;&gt;Node4</title>
<g id="a_edge3_Node000001_Node000004"><a xlink:title=" ">
<path fill="none" stroke="#63b8ff" d="M374.61,-75.94C363.89,-74.57 353.04,-73.19 342.62,-71.86"/>
<polygon fill="#63b8ff" stroke="#63b8ff" points="374.47,-79.45 384.83,-77.24 375.35,-72.5 374.47,-79.45"/>
</a>
</g>
</g>
<!-- Node6 -->
<g id="Node000006" class="node">
<title>Node6</title>
<g id="a_Node000006"><a xlink:href="../../d3/d1a/classAestraUI_1_1UIMixerPanel.html#ab344f8f36dd9531a345623027ca5428c" target="_top" xlink:title="Called when drop occurs.">
<polygon fill="white" stroke="#666666" points="336,-30 208,-30 208,0 336,0 336,-30"/>
<text text-anchor="start" x="216" y="-18" font-family="Helvetica,sans-Serif" font-size="10.00">AestraUI::UIMixerPanel</text>
<text text-anchor="middle" x="272" y="-7" font-family="Helvetica,sans-Serif" font-size="10.00">::onDrop</text>
</a>
</g>
</g>
<!-- Node1&#45;&gt;Node6 -->
<g id="edge5_Node000001_Node000006" class="edge">
<title>Node1&#45;&gt;Node6</title>
<g id="a_edge5_Node000001_Node000006"><a xlink:title=" ">
<path fill="none" stroke="#63b8ff" d="M419.12,-67.76C398.21,-58.57 372.49,-47.7 349,-39 340.7,-35.93 331.79,-32.89 323.11,-30.06"/>
<polygon fill="#63b8ff" stroke="#63b8ff" points="417.81,-71.01 428.37,-71.86 420.64,-64.61 417.81,-71.01"/>
</a>
</g>
</g>
<!-- Node5 -->
<g id="Node000005" class="node">
<title>Node5</title>
<g id="a_Node000005"><a xlink:href="../../db/d60/classAestraContent.html#af214284a167c0d4485e8c7849733eee2" target="_top" xlink:title="Create the file/plugin/preview/pattern browser panels.">
<polygon fill="white" stroke="#666666" points="159,-78 0,-78 0,-48 159,-48 159,-78"/>
<text text-anchor="start" x="8" y="-66" font-family="Helvetica,sans-Serif" font-size="10.00">AestraContent::setupBrowser</text>
<text text-anchor="middle" x="79.5" y="-55" font-family="Helvetica,sans-Serif" font-size="10.00">Panels</text>
</a>
</g>
</g>
<!-- Node4&#45;&gt;Node5 -->
<g id="edge4_Node000004_Node000005" class="edge">
<title>Node4&#45;&gt;Node5</title>
<g id="a_edge4_Node000004_Node000005"><a xlink:title=" ">
<path fill="none" stroke="#63b8ff" d="M191.34,-63C180.72,-63 169.84,-63 159.24,-63"/>
<polygon fill="#63b8ff" stroke="#63b8ff" points="191.42,-66.5 201.42,-63 191.42,-59.5 191.42,-66.5"/>
</a>
</g>
</g>
</g>
</svg>
