<?xml version="1.0" encoding="UTF-8" standalone="no"?>
<!DOCTYPE svg PUBLIC "-//W3C//DTD SVG 1.1//EN"
 "http://www.w3.org/Graphics/SVG/1.1/DTD/svg11.dtd">
<!-- Generated by graphviz version 2.43.0 (0)
 -->
<!-- Title: AestraUI::AestraCompEditor Pages: 1 -->
<!--zoomable 350 -->

<svg id="main" version="1.1" xmlns="http://www.w3.org/2000/svg" xmlns:xlink="http://www.w3.org/1999/xlink" xml:space="preserve" onload="init(evt)">
<style type="text/css"><![CDATA[
.node, .edge {opacity: 0.7;}
.node.selected, .edge.selected {opacity: 1;}
.edge:hover path { stroke: red; }
.edge:hover polygon { stroke: red; fill: red; }
]]></style>

<defs>
  <circle id="rim" cx="0" cy="0" r="7"/>
  <circle id="rim2" cx="0" cy="0" r="3.5"/>
  <g id="zoomPlus">
    <use xlink:href="#rim" fill="#404040"><set attributeName="fill" to="#808080" begin="zoomplus.mouseover" end="zoomplus.mouseout"/></use>
    <path d="M-4,0h8M0,-4v8" fill="none" stroke="white" stroke-width="1.5" pointer-events="none"/>
  </g>
  <g id="zoomMin">
    <use xlink:href="#rim" fill="#404040"><set attributeName="fill" to="#808080" begin="zoomminus.mouseover" end="zoomminus.mouseout"/></use>
    <path d="M-4,0h8" fill="none" stroke="white" stroke-width="1.5" pointer-events="none"/>
  </g>
  <g id="arrowUp" transform="translate(30 24)">
    <use xlink:href="#rim"/>
    <path pointer-events="none" fill="none" stroke="white" stroke-width="1.5" d="M0,-3.0v7 M-2.5,-0.5L0,-3.0L2.5,-0.5"/>
  </g>
  <g id="arrowRight" transform="rotate(90) translate(36 -43)">
    <use xlink:href="#rim"/>
    <path pointer-events="none" fill="none" stroke="white" stroke-width="1.5" d="M0,-3.0v7 M-2.5,-0.5L0,-3.0L2.5,-0.5"/>
  </g>
  <g id="arrowDown" transform="rotate(180) translate(-30 -48)">
    <use xlink:href="#rim"/>
    <path pointer-events="none" fill="none" stroke="white" stroke-width="1.5" d="M0,-3.0v7 M-2.5,-0.5L0,-3.0L2.5,-0.5"/>
  </g>
  <g id="arrowLeft" transform="rotate(270) translate(-36 17)">
    <use xlink:href="#rim"/>
    <path pointer-events="none" fill="none" stroke="white" stroke-width="1.5" d="M0,-3.0v7 M-2.5,-0.5L0,-3.0L2.5,-0.5"/>
  </g>
  <g id="resetDef">
    <use xlink:href="#rim2" fill="#404040"><set attributeName="fill" to="#808080" begin="reset.mouseover" end="reset.mouseout"/></use>
  </g>
</defs>
<script type="application/ecmascript">
var viewWidth = 950;
var viewHeight = 350;
var sectionId = 'dynsection-1';
</script>
<script type="application/ecmascript" xlink:href="../../svg.min.js"/>
<svg id="graph" class="graph">
<g id="viewport">
<title>AestraUI::AestraCompEditor</title>
<!-- Node1 -->
<g id="Node000001" class="node">
<title>Node1</title>
<g id="a_Node000001"><a xlink:title=" ">
<polygon fill="#999999" stroke="#666666" points="942,-140 789,-140 789,-121 942,-121 942,-140"/>
<text text-anchor="middle" x="865.5" y="-128" font-family="Helvetica,sans-Serif" font-size="10.00">AestraUI::AestraCompEditor</text>
</a>
</g>
</g>
<!-- Node2 -->
<g id="Node000002" class="node">
<title>Node2</title>
<g id="a_Node000002"><a xlink:href="../../d3/d27/classAestraUI_1_1AestraPanelWindow.html" target="_top" xlink:title="Unified panel chrome for all child windows (plugin editors, Settings, etc.).">
<polygon fill="white" stroke="#666666" points="752,-140 591,-140 591,-121 752,-121 752,-140"/>
<text text-anchor="middle" x="671.5" y="-128" font-family="Helvetica,sans-Serif" font-size="10.00">AestraUI::AestraPanelWindow</text>
</a>
</g>
</g>
<!-- Node2&#45;&gt;Node1 -->
<g id="edge1_Node000001_Node000002" class="edge">
<title>Node2&#45;&gt;Node1</title>
<g id="a_edge1_Node000001_Node000002"><a xlink:title=" ">
<path fill="none" stroke="#63b8ff" d="M762.29,-130.5C771.23,-130.5 780.23,-130.5 788.99,-130.5"/>
<polygon fill="#63b8ff" stroke="#63b8ff" points="762.26,-127 752.26,-130.5 762.26,-134 762.26,-127"/>
</a>
</g>
</g>
<!-- Node3 -->
<g id="Node000003" class="node">
<title>Node3</title>
<g id="a_Node000003"><a xlink:href="../../db/d1a/classAestraUI_1_1NUIComponent.html" target="_top" xlink:title="Base class for all UI components in the Aestra UI framework.">
<polygon fill="white" stroke="#666666" points="424.5,-263 285.5,-263 285.5,-244 424.5,-244 424.5,-263"/>
<text text-anchor="middle" x="355" y="-251" font-family="Helvetica,sans-Serif" font-size="10.00">AestraUI::NUIComponent</text>
</a>
</g>
</g>
<!-- Node3&#45;&gt;Node2 -->
<g id="edge2_Node000002_Node000003" class="edge">
<title>Node3&#45;&gt;Node2</title>
<g id="a_edge2_Node000002_Node000003"><a xlink:title=" ">
<path fill="none" stroke="#63b8ff" d="M434.79,-242.89C477.13,-235.26 529.43,-222.66 573,-202.5 608.52,-186.06 643.89,-155.5 660.58,-140.02"/>
<polygon fill="#63b8ff" stroke="#63b8ff" points="434.06,-239.47 424.81,-244.63 435.26,-246.36 434.06,-239.47"/>
</a>
</g>
</g>
<!-- Node4 -->
<g id="Node000004" class="node">
<title>Node4</title>
<g id="a_Node000004"><a xlink:title=" ">
<polygon fill="white" stroke="#bfbfbf" points="165,-341.5 0,-341.5 0,-311.5 165,-311.5 165,-341.5"/>
<text text-anchor="start" x="8" y="-329.5" font-family="Helvetica,sans-Serif" font-size="10.00">std::enable_shared</text>
<text text-anchor="middle" x="82.5" y="-318.5" font-family="Helvetica,sans-Serif" font-size="10.00">_from_this&lt; NUIComponent &gt;</text>
</a>
</g>
</g>
<!-- Node4&#45;&gt;Node3 -->
<g id="edge3_Node000003_Node000004" class="edge">
<title>Node4&#45;&gt;Node3</title>
<g id="a_edge3_Node000003_Node000004"><a xlink:title=" ">
<path fill="none" stroke="#63b8ff" d="M175.4,-325.89C202.81,-323.65 232.58,-319.13 259,-310.5 291.54,-299.87 324.76,-276.47 341.98,-263.19"/>
<polygon fill="#63b8ff" stroke="#63b8ff" points="175.13,-322.4 165.41,-326.61 175.64,-329.38 175.13,-322.4"/>
</a>
</g>
</g>
<!-- Node5 -->
<g id="Node000005" class="node">
<title>Node5</title>
<g id="a_Node000005"><a xlink:title=" ">
<polygon fill="white" stroke="#bfbfbf" points="142.5,-283.5 22.5,-283.5 22.5,-253.5 142.5,-253.5 142.5,-283.5"/>
<text text-anchor="start" x="30.5" y="-271.5" font-family="Helvetica,sans-Serif" font-size="10.00">function&lt; void(const</text>
<text text-anchor="middle" x="82.5" y="-260.5" font-family="Helvetica,sans-Serif" font-size="10.00"> NUIMouseEvent &amp;)&gt;</text>
</a>
</g>
</g>
<!-- Node5&#45;&gt;Node3 -->
<g id="edge4_Node000003_Node000005" class="edge">
<title>Node5&#45;&gt;Node3</title>
<g id="a_edge4_Node000003_Node000005"><a xlink:title=" ">
<path fill="none" stroke="#9a32cd" stroke-dasharray="5,2" d="M152.62,-264.67C193.25,-262.41 244.45,-259.57 285.06,-257.32"/>
<polygon fill="#9a32cd" stroke="#9a32cd" points="152.32,-261.18 142.53,-265.23 152.71,-268.17 152.32,-261.18"/>
</a>
</g>
<text text-anchor="middle" x="221" y="-298.5" font-family="Helvetica,sans-Serif" font-size="10.00" fill="grey"> onMouseDown</text>
<text text-anchor="middle" x="221" y="-287.5" font-family="Helvetica,sans-Serif" font-size="10.00" fill="grey">onMouseMove</text>
<text text-anchor="middle" x="221" y="-276.5" font-family="Helvetica,sans-Serif" font-size="10.00" fill="grey">onMouseUp</text>
<text text-anchor="middle" x="221" y="-265.5" font-family="Helvetica,sans-Serif" font-size="10.00" fill="grey">onMouseWheel</text>
</g>
<!-- Node6 -->
<g id="Node000006" class="node">
<title>Node6</title>
<g id="a_Node000006"><a xlink:title=" ">
<polygon fill="white" stroke="#bfbfbf" points="142,-235.5 23,-235.5 23,-205.5 142,-205.5 142,-235.5"/>
<text text-anchor="start" x="31" y="-223.5" font-family="Helvetica,sans-Serif" font-size="10.00">function&lt; void(const</text>
<text text-anchor="middle" x="82.5" y="-212.5" font-family="Helvetica,sans-Serif" font-size="10.00"> NUIKeyEvent &amp;)&gt;</text>
</a>
</g>
</g>
<!-- Node6&#45;&gt;Node3 -->
<g id="edge5_Node000003_Node000006" class="edge">
<title>Node6&#45;&gt;Node3</title>
<g id="a_edge5_Node000003_Node000006"><a xlink:title=" ">
<path fill="none" stroke="#9a32cd" stroke-dasharray="5,2" d="M152.51,-222.84C184.95,-224.54 224.09,-227.48 259,-232.5 278.23,-235.27 299.35,-239.79 316.79,-243.92"/>
<polygon fill="#9a32cd" stroke="#9a32cd" points="152.39,-219.33 142.23,-222.32 152.04,-226.32 152.39,-219.33"/>
</a>
</g>
<text text-anchor="middle" x="221" y="-246.5" font-family="Helvetica,sans-Serif" font-size="10.00" fill="grey"> onKeyDown</text>
<text text-anchor="middle" x="221" y="-235.5" font-family="Helvetica,sans-Serif" font-size="10.00" fill="grey">onKeyUp</text>
</g>
<!-- Node7 -->
<g id="Node000007" class="node">
<title>Node7</title>
<g id="a_Node000007"><a xlink:title=" ">
<polygon fill="white" stroke="#bfbfbf" points="101.5,-161 63.5,-161 63.5,-142 101.5,-142 101.5,-161"/>
<text text-anchor="middle" x="82.5" y="-149" font-family="Helvetica,sans-Serif" font-size="10.00">float</text>
</a>
</g>
</g>
<!-- Node7&#45;&gt;Node2 -->
<g id="edge6_Node000002_Node000007" class="edge">
<title>Node7&#45;&gt;Node2</title>
<g id="a_edge6_Node000002_Node000007"><a xlink:title=" ">
<path fill="none" stroke="#9a32cd" stroke-dasharray="5,2" d="M111.53,-159.41C131.31,-164.57 158.55,-170.83 183,-173.5 276.22,-183.68 414.85,-193.62 573,-164.5 600.15,-159.5 629.92,-148.21 649.33,-140.01"/>
<polygon fill="#9a32cd" stroke="#9a32cd" points="112.21,-155.97 101.64,-156.76 110.39,-162.73 112.21,-155.97"/>
</a>
</g>
<text text-anchor="middle" x="355" y="-197.5" font-family="Helvetica,sans-Serif" font-size="10.00" fill="grey"> TITLE_BAR_H</text>
<text text-anchor="middle" x="355" y="-186.5" font-family="Helvetica,sans-Serif" font-size="10.00" fill="grey">kRadius</text>
</g>
<!-- Node9 -->
<g id="Node000009" class="node">
<title>Node9</title>
<g id="a_Node000009"><a xlink:href="../../dd/d25/structAestraUI_1_1NUIPoint.html" target="_top" xlink:title=" ">
<polygon fill="white" stroke="#bfbfbf" points="408.5,-152 301.5,-152 301.5,-133 408.5,-133 408.5,-152"/>
<text text-anchor="middle" x="355" y="-140" font-family="Helvetica,sans-Serif" font-size="10.00">AestraUI::NUIPoint</text>
</a>
</g>
</g>
<!-- Node7&#45;&gt;Node9 -->
<g id="edge9_Node000009_Node000007" class="edge">
<title>Node7&#45;&gt;Node9</title>
<g id="a_edge9_Node000009_Node000007"><a xlink:title=" ">
<path fill="none" stroke="#9a32cd" stroke-dasharray="5,2" d="M111.84,-150.56C156.67,-149.07 244.67,-146.14 301.34,-144.25"/>
<polygon fill="#9a32cd" stroke="#9a32cd" points="111.55,-147.06 101.67,-150.9 111.78,-154.06 111.55,-147.06"/>
</a>
</g>
<text text-anchor="middle" x="221" y="-161.5" font-family="Helvetica,sans-Serif" font-size="10.00" fill="grey"> x</text>
<text text-anchor="middle" x="221" y="-150.5" font-family="Helvetica,sans-Serif" font-size="10.00" fill="grey">y</text>
</g>
<!-- Node10 -->
<g id="Node000010" class="node">
<title>Node10</title>
<g id="a_Node000010"><a xlink:href="../../da/d4e/structAestraUI_1_1NUIRect.html" target="_top" xlink:title=" ">
<polygon fill="white" stroke="#bfbfbf" points="407,-106 303,-106 303,-87 407,-87 407,-106"/>
<text text-anchor="middle" x="355" y="-94" font-family="Helvetica,sans-Serif" font-size="10.00">AestraUI::NUIRect</text>
</a>
</g>
</g>
<!-- Node7&#45;&gt;Node10 -->
<g id="edge11_Node000010_Node000007" class="edge">
<title>Node7&#45;&gt;Node10</title>
<g id="a_edge11_Node000010_Node000007"><a xlink:title=" ">
<path fill="none" stroke="#9a32cd" stroke-dasharray="5,2" d="M104.47,-136.12C123.76,-122.97 153.75,-105.02 183,-97.5 222.25,-87.41 268.26,-87.8 302.66,-90.36"/>
<polygon fill="#9a32cd" stroke="#9a32cd" points="102.33,-133.34 96.15,-141.94 106.34,-139.07 102.33,-133.34"/>
</a>
</g>
<text text-anchor="middle" x="221" y="-133.5" font-family="Helvetica,sans-Serif" font-size="10.00" fill="grey"> height</text>
<text text-anchor="middle" x="221" y="-122.5" font-family="Helvetica,sans-Serif" font-size="10.00" fill="grey">width</text>
<text text-anchor="middle" x="221" y="-111.5" font-family="Helvetica,sans-Serif" font-size="10.00" fill="grey">x</text>
<text text-anchor="middle" x="221" y="-100.5" font-family="Helvetica,sans-Serif" font-size="10.00" fill="grey">y</text>
</g>
<!-- Node8 -->
<g id="Node000008" class="node">
<title>Node8</title>
<g id="a_Node000008"><a xlink:title=" ">
<polygon fill="white" stroke="#bfbfbf" points="374,-56 336,-56 336,-37 374,-37 374,-56"/>
<text text-anchor="middle" x="355" y="-44" font-family="Helvetica,sans-Serif" font-size="10.00">bool</text>
</a>
</g>
</g>
<!-- Node8&#45;&gt;Node2 -->
<g id="edge7_Node000002_Node000008" class="edge">
<title>Node8&#45;&gt;Node2</title>
<g id="a_edge7_Node000002_Node000008"><a xlink:title=" ">
<path fill="none" stroke="#9a32cd" stroke-dasharray="5,2" d="M384.26,-43.04C426.67,-38.95 508.67,-35.33 573,-58.5 610.22,-71.9 645.36,-104.45 661.4,-120.8"/>
<polygon fill="#9a32cd" stroke="#9a32cd" points="383.7,-39.58 374.12,-44.11 384.43,-46.54 383.7,-39.58"/>
</a>
</g>
<text text-anchor="middle" x="512" y="-94.5" font-family="Helvetica,sans-Serif" font-size="10.00" fill="grey"> m_enforceParentBounds</text>
<text text-anchor="middle" x="512" y="-83.5" font-family="Helvetica,sans-Serif" font-size="10.00" fill="grey">m_haveParentSnapshot</text>
<text text-anchor="middle" x="512" y="-72.5" font-family="Helvetica,sans-Serif" font-size="10.00" fill="grey">m_isDraggingWindow</text>
<text text-anchor="middle" x="512" y="-61.5" font-family="Helvetica,sans-Serif" font-size="10.00" fill="grey">m_userPositioned</text>
</g>
<!-- Node9&#45;&gt;Node2 -->
<g id="edge8_Node000002_Node000009" class="edge">
<title>Node9&#45;&gt;Node2</title>
<g id="a_edge8_Node000002_Node000009"><a xlink:title=" ">
<path fill="none" stroke="#9a32cd" stroke-dasharray="5,2" d="M418.88,-140.1C468.31,-138.21 537.5,-135.57 590.81,-133.54"/>
<polygon fill="#9a32cd" stroke="#9a32cd" points="418.5,-136.61 408.64,-140.49 418.77,-143.61 418.5,-136.61"/>
</a>
</g>
<text text-anchor="middle" x="512" y="-152.5" font-family="Helvetica,sans-Serif" font-size="10.00" fill="grey"> m_dragStartPos</text>
<text text-anchor="middle" x="512" y="-141.5" font-family="Helvetica,sans-Serif" font-size="10.00" fill="grey">m_windowStartPos</text>
</g>
<!-- Node10&#45;&gt;Node2 -->
<g id="edge10_Node000002_Node000010" class="edge">
<title>Node10&#45;&gt;Node2</title>
<g id="a_edge10_Node000002_Node000010"><a xlink:title=" ">
<path fill="none" stroke="#9a32cd" stroke-dasharray="5,2" d="M417.46,-102.38C460.93,-106.62 520.57,-112.62 573,-118.5 579.95,-119.28 587.17,-120.12 594.41,-120.97"/>
<polygon fill="#9a32cd" stroke="#9a32cd" points="417.62,-98.88 407.33,-101.39 416.95,-105.84 417.62,-98.88"/>
</a>
</g>
<text text-anchor="middle" x="512" y="-121.5" font-family="Helvetica,sans-Serif" font-size="10.00" fill="grey"> m_lastParentBounds</text>
</g>
<!-- Node11 -->
<g id="Node000011" class="node">
<title>Node11</title>
<g id="a_Node000011"><a xlink:href="../../d2/d9e/classAestraUI_1_1NUIPlatformBridge.html" target="_top" xlink:title="Bridge between AestraPlat and AestraUI Wraps AestraPlat&#39;s IPlatformWindow to work with AestraUI&#39;s exi...">
<polygon fill="white" stroke="#666666" points="433,-19 277,-19 277,0 433,0 433,-19"/>
<text text-anchor="middle" x="355" y="-7" font-family="Helvetica,sans-Serif" font-size="10.00">AestraUI::NUIPlatformBridge</text>
</a>
</g>
</g>
<!-- Node11&#45;&gt;Node2 -->
<g id="edge12_Node000002_Node000011" class="edge">
<title>Node11&#45;&gt;Node2</title>
<g id="a_edge12_Node000002_Node000011"><a xlink:title=" ">
<path fill="none" stroke="#9a32cd" stroke-dasharray="5,2" d="M443.12,-1.6C484.33,-1.36 533.13,-6.34 573,-25.5 617.84,-47.05 652.13,-99.02 664.98,-120.72"/>
<polygon fill="#9a32cd" stroke="#9a32cd" points="443.03,1.9 433.09,-1.76 443.14,-5.1 443.03,1.9"/>
</a>
</g>
<text text-anchor="middle" x="512" y="-28.5" font-family="Helvetica,sans-Serif" font-size="10.00" fill="grey"> m_platformBridge</text>
</g>
</g>
</svg>

<g id="navigator" transform="translate(0 0)" fill="#404254">
  <rect fill="#f2f5e9" fill-opacity="0.5" stroke="#606060" stroke-width=".5" x="0" y="0" width="60" height="60"/>
  <use id="zoomplus" xlink:href="#zoomPlus" x="17" y="9" onmousedown="handleZoom(evt,'in')"/>
  <use id="zoomminus" xlink:href="#zoomMin" x="42" y="9" onmousedown="handleZoom(evt,'out')"/>
  <use id="reset" xlink:href="#resetDef" x="30" y="36" onmousedown="handleReset()"/>
   <use id="arrowup" xlink:href="#arrowUp" x="0" y="0" onmousedown="handlePan(0,-1)"/>
  <use id="arrowright" xlink:href="#arrowRight" x="0" y="0" onmousedown="handlePan(1,0)"/>
  <use id="arrowdown" xlink:href="#arrowDown" x="0" y="0" onmousedown="handlePan(0,1)"/>
  <use id="arrowleft" xlink:href="#arrowLeft" x="0" y="0" onmousedown="handlePan(-1,0)"/>
</g>
<svg viewBox="0 0 15 15" width="100%" height="30px" preserveAspectRatio="xMaxYMin meet">
 <g id="arrow_out" transform="scale(0.3 0.3)">
  <a xlink:href="classAestraUI_1_1AestraCompEditor__coll__graph_org.svg" target="_base">
   <rect id="button" ry="5" rx="5" y="6" x="6" height="38" width="38"
        fill="#f2f5e9" fill-opacity="0.5" stroke="#606060" stroke-width="1.0"/>
   <path id="arrow"
     d="M 11.500037,31.436501 C 11.940474,20.09759 22.043105,11.32322 32.158766,21.979434 L 37.068811,17.246167 C 37.068811,17.246167 37.088388,32 37.088388,32 L 22.160133,31.978069 C 22.160133,31.978069 26.997745,27.140456 26.997745,27.140456 C 18.528582,18.264221 13.291696,25.230495 11.500037,31.436501 z"
     style="fill:#404040;"/>
  </a>
 </g>
</svg>

<style type='text/css'>
<![CDATA[
[data-mouse-over-selected='false'] { opacity: 0.7; }
[data-mouse-over-selected='true']  { opacity: 1.0; }
]]>
</style>
<script type="application/ecmascript"><![CDATA[
document.addEventListener('DOMContentLoaded', (event) => {
  highlightEdges();
  highlightAdjacentNodes();
});
]]></script>
</svg>
