<?xml version="1.0" encoding="UTF-8" standalone="no"?>
<!DOCTYPE svg PUBLIC "-//W3C//DTD SVG 1.1//EN"
 "http://www.w3.org/Graphics/SVG/1.1/DTD/svg11.dtd">
<!-- Generated by graphviz version 2.43.0 (0)
 -->
<!-- Title: AestraAudio/include/IO/AudioExportQuantization.h Pages: 1 -->
<!--zoomable 236 -->

<svg id="main" version="1.1" xmlns="http://www.w3.org/2000/svg" xmlns:xlink="http://www.w3.org/1999/xlink" xml:space="preserve" onload="init(evt)">
<style type="text/css"><![CDATA[
.node, .edge {opacity: 0.7;}
.node.selected, .edge.selected {opacity: 1;}
.edge:hover path { stroke: red; }
.edge:hover polygon { stroke: red; fill: red; }
]]></style>

<defs>
  <circle id="rim" cx="0" cy="0" r="7"/>
  <circle id="rim2" cx="0" cy="0" r="3.5"/>
  <g id="zoomPlus">
    <use xlink:href="#rim" fill="#404040"><set attributeName="fill" to="#808080" begin="zoomplus.mouseover" end="zoomplus.mouseout"/></use>
    <path d="M-4,0h8M0,-4v8" fill="none" stroke="white" stroke-width="1.5" pointer-events="none"/>
  </g>
  <g id="zoomMin">
    <use xlink:href="#rim" fill="#404040"><set attributeName="fill" to="#808080" begin="zoomminus.mouseover" end="zoomminus.mouseout"/></use>
    <path d="M-4,0h8" fill="none" stroke="white" stroke-width="1.5" pointer-events="none"/>
  </g>
  <g id="arrowUp" transform="translate(30 24)">
    <use xlink:href="#rim"/>
    <path pointer-events="none" fill="none" stroke="white" stroke-width="1.5" d="M0,-3.0v7 M-2.5,-0.5L0,-3.0L2.5,-0.5"/>
  </g>
  <g id="arrowRight" transform="rotate(90) translate(36 -43)">
    <use xlink:href="#rim"/>
    <path pointer-events="none" fill="none" stroke="white" stroke-width="1.5" d="M0,-3.0v7 M-2.5,-0.5L0,-3.0L2.5,-0.5"/>
  </g>
  <g id="arrowDown" transform="rotate(180) translate(-30 -48)">
    <use xlink:href="#rim"/>
    <path pointer-events="none" fill="none" stroke="white" stroke-width="1.5" d="M0,-3.0v7 M-2.5,-0.5L0,-3.0L2.5,-0.5"/>
  </g>
  <g id="arrowLeft" transform="rotate(270) translate(-36 17)">
    <use xlink:href="#rim"/>
    <path pointer-events="none" fill="none" stroke="white" stroke-width="1.5" d="M0,-3.0v7 M-2.5,-0.5L0,-3.0L2.5,-0.5"/>
  </g>
  <g id="resetDef">
    <use xlink:href="#rim2" fill="#404040"><set attributeName="fill" to="#808080" begin="reset.mouseover" end="reset.mouseout"/></use>
  </g>
</defs>
<script type="application/ecmascript">
var viewWidth = 1069;
var viewHeight = 236;
var sectionId = 'dynsection-1';
</script>
<script type="application/ecmascript" xlink:href="../../svg.min.js"/>
<svg id="graph" class="graph">
<g id="viewport">
<title>AestraAudio/include/IO/AudioExportQuantization.h</title>
<!-- Node1 -->
<g id="Node000001" class="node">
<title>Node1</title>
<g id="a_Node000001"><a xlink:title="PCM quantization with optional triangular&#45;pdf dither for offline export.">
<polygon fill="#999999" stroke="#666666" points="662.5,-228 498.5,-228 498.5,-198 662.5,-198 662.5,-228"/>
<text text-anchor="start" x="506.5" y="-216" font-family="Helvetica,sans-Serif" font-size="10.00">AestraAudio/include</text>
<text text-anchor="middle" x="580.5" y="-205" font-family="Helvetica,sans-Serif" font-size="10.00">/IO/AudioExportQuantization.h</text>
</a>
</g>
</g>
<!-- Node2 -->
<g id="Node000002" class="node">
<title>Node2</title>
<g id="a_Node000002"><a xlink:href="../../d8/da6/AudioExporter_8h_source.html" target="_top" xlink:title=" ">
<polygon fill="white" stroke="#666666" points="637.5,-162 523.5,-162 523.5,-132 637.5,-132 637.5,-162"/>
<text text-anchor="start" x="531.5" y="-150" font-family="Helvetica,sans-Serif" font-size="10.00">AestraAudio/include</text>
<text text-anchor="middle" x="580.5" y="-139" font-family="Helvetica,sans-Serif" font-size="10.00">/IO/AudioExporter.h</text>
</a>
</g>
</g>
<!-- Node1&#45;&gt;Node2 -->
<g id="edge1_Node000001_Node000002" class="edge">
<title>Node1&#45;&gt;Node2</title>
<g id="a_edge1_Node000001_Node000002"><a xlink:title=" ">
<path fill="none" stroke="#63b8ff" d="M580.5,-187.54C580.5,-178.96 580.5,-169.61 580.5,-162.16"/>
<polygon fill="#63b8ff" stroke="#63b8ff" points="577,-187.8 580.5,-197.8 584,-187.8 577,-187.8"/>
</a>
</g>
</g>
<!-- Node3 -->
<g id="Node000003" class="node">
<title>Node3</title>
<g id="a_Node000003"><a xlink:href="../../d0/d48/HeadlessMusicGenerator_8h_source.html" target="_top" xlink:title=" ">
<polygon fill="white" stroke="#666666" points="266.5,-96 68.5,-96 68.5,-66 266.5,-66 266.5,-96"/>
<text text-anchor="start" x="76.5" y="-84" font-family="Helvetica,sans-Serif" font-size="10.00">AestraAudio/include</text>
<text text-anchor="middle" x="167.5" y="-73" font-family="Helvetica,sans-Serif" font-size="10.00">/Headless/HeadlessMusicGenerator.h</text>
</a>
</g>
</g>
<!-- Node2&#45;&gt;Node3 -->
<g id="edge2_Node000002_Node000003" class="edge">
<title>Node2&#45;&gt;Node3</title>
<g id="a_edge2_Node000002_Node000003"><a xlink:title=" ">
<path fill="none" stroke="#63b8ff" d="M513.13,-135.56C443.72,-124.8 335.1,-107.97 258.17,-96.05"/>
<polygon fill="#63b8ff" stroke="#63b8ff" points="512.66,-139.03 523.07,-137.1 513.73,-132.11 512.66,-139.03"/>
</a>
</g>
</g>
<!-- Node6 -->
<g id="Node000006" class="node">
<title>Node6</title>
<g id="a_Node000006"><a xlink:href="../../d1/d59/MuseService_8cpp_source.html" target="_top" xlink:title=" ">
<polygon fill="white" stroke="#666666" points="436.5,-96 284.5,-96 284.5,-66 436.5,-66 436.5,-96"/>
<text text-anchor="start" x="292.5" y="-84" font-family="Helvetica,sans-Serif" font-size="10.00">AestraAudio/src/Commands</text>
<text text-anchor="middle" x="360.5" y="-73" font-family="Helvetica,sans-Serif" font-size="10.00">/MuseService.cpp</text>
</a>
</g>
</g>
<!-- Node2&#45;&gt;Node6 -->
<g id="edge5_Node000002_Node000006" class="edge">
<title>Node2&#45;&gt;Node6</title>
<g id="a_edge5_Node000002_Node000006"><a xlink:title=" ">
<path fill="none" stroke="#63b8ff" d="M522.48,-129.12C487.01,-118.8 442.17,-105.76 408.67,-96.01"/>
<polygon fill="#63b8ff" stroke="#63b8ff" points="521.64,-132.52 532.22,-131.95 523.6,-125.8 521.64,-132.52"/>
</a>
</g>
</g>
<!-- Node7 -->
<g id="Node000007" class="node">
<title>Node7</title>
<g id="a_Node000007"><a xlink:href="../../df/dc3/AudioEngine_8cpp_source.html" target="_top" xlink:title=" ">
<polygon fill="white" stroke="#666666" points="574,-96 455,-96 455,-66 574,-66 574,-96"/>
<text text-anchor="start" x="463" y="-84" font-family="Helvetica,sans-Serif" font-size="10.00">AestraAudio/src/Core</text>
<text text-anchor="middle" x="514.5" y="-73" font-family="Helvetica,sans-Serif" font-size="10.00">/AudioEngine.cpp</text>
</a>
</g>
</g>
<!-- Node2&#45;&gt;Node7 -->
<g id="edge6_Node000002_Node000007" class="edge">
<title>Node2&#45;&gt;Node7</title>
<g id="a_edge6_Node000002_Node000007"><a xlink:title=" ">
<path fill="none" stroke="#63b8ff" d="M558.48,-124.65C548.81,-115.27 537.73,-104.53 529.11,-96.16"/>
<polygon fill="#63b8ff" stroke="#63b8ff" points="556.24,-127.35 565.85,-131.8 561.11,-122.32 556.24,-127.35"/>
</a>
</g>
</g>
<!-- Node8 -->
<g id="Node000008" class="node">
<title>Node8</title>
<g id="a_Node000008"><a xlink:href="../../d0/dd9/AudioExporter_8cpp_source.html" target="_top" xlink:title=" ">
<polygon fill="white" stroke="#666666" points="700.5,-96 592.5,-96 592.5,-66 700.5,-66 700.5,-96"/>
<text text-anchor="start" x="600.5" y="-84" font-family="Helvetica,sans-Serif" font-size="10.00">AestraAudio/src/IO</text>
<text text-anchor="middle" x="646.5" y="-73" font-family="Helvetica,sans-Serif" font-size="10.00">/AudioExporter.cpp</text>
</a>
</g>
</g>
<!-- Node2&#45;&gt;Node8 -->
<g id="edge7_Node000002_Node000008" class="edge">
<title>Node2&#45;&gt;Node8</title>
<g id="a_edge7_Node000002_Node000008"><a xlink:title=" ">
<path fill="none" stroke="#63b8ff" d="M602.52,-124.65C612.19,-115.27 623.27,-104.53 631.89,-96.16"/>
<polygon fill="#63b8ff" stroke="#63b8ff" points="599.89,-122.32 595.15,-131.8 604.76,-127.35 599.89,-122.32"/>
</a>
</g>
</g>
<!-- Node9 -->
<g id="Node000009" class="node">
<title>Node9</title>
<g id="a_Node000009"><a xlink:href="../../db/d11/AestraApp_8cpp_source.html" target="_top" xlink:title=" ">
<polygon fill="white" stroke="#666666" points="864,-90.5 719,-90.5 719,-71.5 864,-71.5 864,-90.5"/>
<text text-anchor="middle" x="791.5" y="-78.5" font-family="Helvetica,sans-Serif" font-size="10.00">Source/App/AestraApp.cpp</text>
</a>
</g>
</g>
<!-- Node2&#45;&gt;Node9 -->
<g id="edge8_Node000002_Node000009" class="edge">
<title>Node2&#45;&gt;Node9</title>
<g id="a_edge8_Node000002_Node000009"><a xlink:title=" ">
<path fill="none" stroke="#63b8ff" d="M636.38,-129.05C677.3,-116.64 731.13,-100.31 763.42,-90.52"/>
<polygon fill="#63b8ff" stroke="#63b8ff" points="635.36,-125.7 626.8,-131.95 637.39,-132.4 635.36,-125.7"/>
</a>
</g>
</g>
<!-- Node10 -->
<g id="Node000010" class="node">
<title>Node10</title>
<g id="a_Node000010"><a xlink:href="../../da/d3c/ExportDialog_8cpp_source.html" target="_top" xlink:title=" ">
<polygon fill="white" stroke="#666666" points="1061,-90.5 882,-90.5 882,-71.5 1061,-71.5 1061,-90.5"/>
<text text-anchor="middle" x="971.5" y="-78.5" font-family="Helvetica,sans-Serif" font-size="10.00">Source/Settings/ExportDialog.cpp</text>
</a>
</g>
</g>
<!-- Node2&#45;&gt;Node10 -->
<g id="edge9_Node000002_Node000010" class="edge">
<title>Node2&#45;&gt;Node10</title>
<g id="a_edge9_Node000002_Node000010"><a xlink:title=" ">
<path fill="none" stroke="#63b8ff" d="M647.85,-134.98C724.89,-122.37 849.39,-101.99 919.39,-90.53"/>
<polygon fill="#63b8ff" stroke="#63b8ff" points="647.08,-131.56 637.77,-136.63 648.21,-138.46 647.08,-131.56"/>
</a>
</g>
</g>
<!-- Node4 -->
<g id="Node000004" class="node">
<title>Node4</title>
<g id="a_Node000004"><a xlink:href="../../d0/d01/HeadlessMusicGenerator_8cpp_source.html" target="_top" xlink:title=" ">
<polygon fill="white" stroke="#666666" points="161,-30 0,-30 0,0 161,0 161,-30"/>
<text text-anchor="start" x="8" y="-18" font-family="Helvetica,sans-Serif" font-size="10.00">AestraAudio/src/Headless</text>
<text text-anchor="middle" x="80.5" y="-7" font-family="Helvetica,sans-Serif" font-size="10.00">/HeadlessMusicGenerator.cpp</text>
</a>
</g>
</g>
<!-- Node3&#45;&gt;Node4 -->
<g id="edge3_Node000003_Node000004" class="edge">
<title>Node3&#45;&gt;Node4</title>
<g id="a_edge3_Node000003_Node000004"><a xlink:title=" ">
<path fill="none" stroke="#63b8ff" d="M139.98,-59.75C126.89,-50.13 111.57,-38.86 99.75,-30.16"/>
<polygon fill="#63b8ff" stroke="#63b8ff" points="138.06,-62.69 148.19,-65.8 142.21,-57.05 138.06,-62.69"/>
</a>
</g>
</g>
<!-- Node5 -->
<g id="Node000005" class="node">
<title>Node5</title>
<g id="a_Node000005"><a xlink:href="../../de/db1/HeadlessExportMain_8cpp.html" target="_top" xlink:title="CLI tool for headless music generation and export.">
<polygon fill="white" stroke="#666666" points="330,-30 179,-30 179,0 330,0 330,-30"/>
<text text-anchor="start" x="187" y="-18" font-family="Helvetica,sans-Serif" font-size="10.00">Source/App/HeadlessExport</text>
<text text-anchor="middle" x="254.5" y="-7" font-family="Helvetica,sans-Serif" font-size="10.00">Main.cpp</text>
</a>
</g>
</g>
<!-- Node3&#45;&gt;Node5 -->
<g id="edge4_Node000003_Node000005" class="edge">
<title>Node3&#45;&gt;Node5</title>
<g id="a_edge4_Node000003_Node000005"><a xlink:title=" ">
<path fill="none" stroke="#63b8ff" d="M195.02,-59.75C208.11,-50.13 223.43,-38.86 235.25,-30.16"/>
<polygon fill="#63b8ff" stroke="#63b8ff" points="192.79,-57.05 186.81,-65.8 196.94,-62.69 192.79,-57.05"/>
</a>
</g>
</g>
</g>
</svg>

<g id="navigator" transform="translate(0 0)" fill="#404254">
  <rect fill="#f2f5e9" fill-opacity="0.5" stroke="#606060" stroke-width=".5" x="0" y="0" width="60" height="60"/>
  <use id="zoomplus" xlink:href="#zoomPlus" x="17" y="9" onmousedown="handleZoom(evt,'in')"/>
  <use id="zoomminus" xlink:href="#zoomMin" x="42" y="9" onmousedown="handleZoom(evt,'out')"/>
  <use id="reset" xlink:href="#resetDef" x="30" y="36" onmousedown="handleReset()"/>
   <use id="arrowup" xlink:href="#arrowUp" x="0" y="0" onmousedown="handlePan(0,-1)"/>
  <use id="arrowright" xlink:href="#arrowRight" x="0" y="0" onmousedown="handlePan(1,0)"/>
  <use id="arrowdown" xlink:href="#arrowDown" x="0" y="0" onmousedown="handlePan(0,1)"/>
  <use id="arrowleft" xlink:href="#arrowLeft" x="0" y="0" onmousedown="handlePan(-1,0)"/>
</g>
<svg viewBox="0 0 15 15" width="100%" height="30px" preserveAspectRatio="xMaxYMin meet">
 <g id="arrow_out" transform="scale(0.3 0.3)">
  <a xlink:href="AudioExportQuantization_8h__dep__incl_org.svg" target="_base">
   <rect id="button" ry="5" rx="5" y="6" x="6" height="38" width="38"
        fill="#f2f5e9" fill-opacity="0.5" stroke="#606060" stroke-width="1.0"/>
   <path id="arrow"
     d="M 11.500037,31.436501 C 11.940474,20.09759 22.043105,11.32322 32.158766,21.979434 L 37.068811,17.246167 C 37.068811,17.246167 37.088388,32 37.088388,32 L 22.160133,31.978069 C 22.160133,31.978069 26.997745,27.140456 26.997745,27.140456 C 18.528582,18.264221 13.291696,25.230495 11.500037,31.436501 z"
     style="fill:#404040;"/>
  </a>
 </g>
</svg>

<style type='text/css'>
<![CDATA[
[data-mouse-over-selected='false'] { opacity: 0.7; }
[data-mouse-over-selected='true']  { opacity: 1.0; }
]]>
</style>
<script type="application/ecmascript"><![CDATA[
document.addEventListener('DOMContentLoaded', (event) => {
  highlightEdges();
  highlightAdjacentNodes();
});
]]></script>
</svg>
